HIERARCHY
ROOT newVegas:Hips
{
	OFFSET 0.000000 96.330055 9.825774
	CHANNELS 6 Xposition Yposition Zposition Xrotation Yrotation Zrotation
	JOINT newVegas:Pelvis
	{
		OFFSET 0.000000 0.000000 0.000000
		CHANNELS 3 Xrotation Yrotation Zrotation
		JOINT newVegas:LeftUpLeg
		{
			OFFSET 18.735231 -5.666687 -4.541196
			CHANNELS 3 Xrotation Yrotation Zrotation
			JOINT newVegas:LeftLeg
			{
				OFFSET 2.165257 -31.864662 0.493051
				CHANNELS 3 Xrotation Yrotation Zrotation
				JOINT newVegas:LeftFoot
				{
					OFFSET 2.207560 -31.861769 -4.336291
					CHANNELS 3 Xrotation Yrotation Zrotation
					JOINT newVegas:LeftToeBase
					{
						OFFSET 0.942982 -26.721954 15.023476
						CHANNELS 3 Xrotation Yrotation Zrotation
						End Site
						{
							OFFSET 0.000000 30.670130 0.000000
						}
					}
				}
				JOINT newVegas:Left_PantLeg
				{
					OFFSET 1.281483 -8.977982 -1.108870
					CHANNELS 3 Xrotation Yrotation Zrotation
					End Site
					{
						OFFSET 0.000000 20.683853 0.000000
					}
				}
			}
		}
		JOINT newVegas:RightUpLeg
		{
			OFFSET -18.735231 -5.666687 -4.541196
			CHANNELS 3 Xrotation Yrotation Zrotation
			JOINT newVegas:RightLeg
			{
				OFFSET -2.167511 -31.864510 0.493069
				CHANNELS 3 Xrotation Yrotation Zrotation
				JOINT newVegas:RightFoot
				{
					OFFSET -2.205305 -31.861921 -4.336310
					CHANNELS 3 Xrotation Yrotation Zrotation
					JOINT newVegas:RightToeBase
					{
						OFFSET -0.942982 -26.721954 15.023476
						CHANNELS 3 Xrotation Yrotation Zrotation
						End Site
						{
							OFFSET 0.000000 30.670130 0.000000
						}
					}
				}
				JOINT newVegas:Right_PantLeg
				{
					OFFSET -1.279257 -8.978161 -1.108887
					CHANNELS 3 Xrotation Yrotation Zrotation
					End Site
					{
						OFFSET 0.000000 20.683781 0.000000
					}
				}
			}
		}
	}
	JOINT newVegas:Spine
	{
		OFFSET 0.000000 10.200043 -0.299546
		CHANNELS 3 Xrotation Yrotation Zrotation
		JOINT newVegas:Spine1
		{
			OFFSET 0.000000 11.900047 -1.516603
			CHANNELS 3 Xrotation Yrotation Zrotation
			JOINT newVegas:Spine2
			{
				OFFSET 0.000000 13.600052 -2.842519
				CHANNELS 3 Xrotation Yrotation Zrotation
				JOINT newVegas:Neck
				{
					OFFSET 0.000000 9.624100 -2.890091
					CHANNELS 3 Xrotation Yrotation Zrotation
					JOINT newVegas:Head
					{
						OFFSET 0.000000 14.068771 -1.351861
						CHANNELS 3 Xrotation Yrotation Zrotation
						JOINT newVegas:Hair_Back
						{
							OFFSET 0.000000 3.231888 -17.524775
							CHANNELS 3 Xrotation Yrotation Zrotation
							End Site
							{
								OFFSET 0.000000 19.849899 0.000000
							}
						}
						JOINT newVegas:Hair_Front
						{
							OFFSET 0.000000 31.260452 4.573765
							CHANNELS 3 Xrotation Yrotation Zrotation
							JOINT newVegas:Hair_Front1
							{
								OFFSET -0.000000 2.284073 11.993284
								CHANNELS 3 Xrotation Yrotation Zrotation
								JOINT newVegas:Hair_Front2
								{
									OFFSET -0.000000 2.284073 11.993282
									CHANNELS 3 Xrotation Yrotation Zrotation
									End Site
									{
										OFFSET 0.000000 12.208847 0.000000
									}
								}
							}
						}
						JOINT newVegas:Jowel
						{
							OFFSET 0.000000 -7.458237 6.864121
							CHANNELS 3 Xrotation Yrotation Zrotation
							End Site
							{
								OFFSET 0.000000 19.849899 0.000000
							}
						}
					}
				}
				JOINT newVegas:LeftShoulder
				{
					OFFSET 15.263037 10.923431 -0.547705
					CHANNELS 3 Xrotation Yrotation Zrotation
					JOINT newVegas:LeftArm
					{
						OFFSET 25.438639 -2.830658 -13.032501
						CHANNELS 3 Xrotation Yrotation Zrotation
						JOINT newVegas:LeftForeArm
						{
							OFFSET 29.593842 0.000000 -4.673203
							CHANNELS 3 Xrotation Yrotation Zrotation
							JOINT newVegas:LeftHand
							{
								OFFSET 27.832886 0.000000 0.954267
								CHANNELS 3 Xrotation Yrotation Zrotation
								JOINT newVegas:LeftHandThumb1
								{
									OFFSET 4.767456 -2.676666 6.397403
									CHANNELS 3 Xrotation Yrotation Zrotation
									JOINT newVegas:LeftHandThumb2
									{
										OFFSET 6.625809 -0.223526 2.471421
										CHANNELS 3 Xrotation Yrotation Zrotation
										JOINT newVegas:LeftHandThumb3
										{
											OFFSET 6.481201 0.059357 1.536795
											CHANNELS 3 Xrotation Yrotation Zrotation
											End Site
											{
												OFFSET 0.000000 6.661179 0.000000
											}
										}
									}
								}
								JOINT newVegas:LeftHandIndex1
								{
									OFFSET 18.761932 0.178406 4.531118
									CHANNELS 3 Xrotation Yrotation Zrotation
									JOINT newVegas:LeftHandIndex2
									{
										OFFSET 3.171219 -0.350479 0.097670
										CHANNELS 3 Xrotation Yrotation Zrotation
										JOINT newVegas:LeftHandIndex3
										{
											OFFSET 3.807625 -0.034592 0.457391
											CHANNELS 3 Xrotation Yrotation Zrotation
											End Site
											{
												OFFSET 0.000000 3.835159 0.000000
											}
										}
									}
								}
								JOINT newVegas:LeftHandMiddle1
								{
									OFFSET 18.461426 0.243439 -0.695649
									CHANNELS 3 Xrotation Yrotation Zrotation
									JOINT newVegas:LeftHandMiddle2
									{
										OFFSET 3.308960 -0.304459 -0.112251
										CHANNELS 3 Xrotation Yrotation Zrotation
										JOINT newVegas:LeftHandMiddle3
										{
											OFFSET 4.584320 0.057678 -0.330443
											CHANNELS 3 Xrotation Yrotation Zrotation
											End Site
											{
												OFFSET 0.000000 4.596573 0.000000
											}
										}
									}
								}
								JOINT newVegas:LeftHandRing1
								{
									OFFSET 17.563904 -0.015564 -4.860666
									CHANNELS 3 Xrotation Yrotation Zrotation
									JOINT newVegas:LeftHandRing2
									{
										OFFSET 2.582436 -0.710159 -0.544994
										CHANNELS 3 Xrotation Yrotation Zrotation
										JOINT newVegas:LeftHandRing3
										{
											OFFSET 3.050346 0.119141 -0.884829
											CHANNELS 3 Xrotation Yrotation Zrotation
											End Site
											{
												OFFSET 0.000000 3.178314 0.000000
											}
										}
									}
								}
								JOINT newVegas:LeftHandPinky1
								{
									OFFSET 15.713013 -1.058273 -8.049927
									CHANNELS 3 Xrotation Yrotation Zrotation
									JOINT newVegas:LeftHandPinky2
									{
										OFFSET 2.262558 -0.308899 -1.109793
										CHANNELS 3 Xrotation Yrotation Zrotation
										JOINT newVegas:LeftHandPinky3
										{
											OFFSET 2.240669 -0.150864 -1.296448
											CHANNELS 3 Xrotation Yrotation Zrotation
											End Site
											{
												OFFSET 0.000000 2.593094 0.000000
											}
										}
									}
								}
							}
							JOINT newVegas:Left_Sleeve
							{
								OFFSET 0.247482 -0.649780 0.586459
								CHANNELS 3 Xrotation Yrotation Zrotation
								End Site
								{
									OFFSET 0.000000 15.991226 0.000000
								}
							}
							JOINT newVegas:Left_CapeC
							{
								OFFSET 15.944374 -8.608810 -6.393338
								CHANNELS 3 Xrotation Yrotation Zrotation
								JOINT newVegas:Left_CapeC1
								{
									OFFSET 0.000000 -8.688515 0.000000
									CHANNELS 3 Xrotation Yrotation Zrotation
									End Site
									{
										OFFSET 0.000000 8.688515 0.000000
									}
								}
							}
						}
						JOINT newVegas:Left_CapeB
						{
							OFFSET 24.694458 -8.608810 -11.066542
							CHANNELS 3 Xrotation Yrotation Zrotation
							JOINT newVegas:Left_CapeB1
							{
								OFFSET 0.000008 -8.688515 0.000000
								CHANNELS 3 Xrotation Yrotation Zrotation
								End Site
								{
									OFFSET 0.000000 8.688515 0.000000
								}
							}
						}
						JOINT newVegas:Left_CapeA
						{
							OFFSET 3.431450 -8.608810 -11.066542
							CHANNELS 3 Xrotation Yrotation Zrotation
							JOINT newVegas:Left_CapeA1
							{
								OFFSET 0.000000 -8.688515 0.000000
								CHANNELS 3 Xrotation Yrotation Zrotation
								End Site
								{
									OFFSET 0.000000 8.688515 0.000000
								}
							}
						}
					}
				}
				JOINT newVegas:RightShoulder
				{
					OFFSET -15.263037 10.923431 -0.547705
					CHANNELS 3 Xrotation Yrotation Zrotation
					JOINT newVegas:RightArm
					{
						OFFSET -25.438639 -2.830658 -13.032501
						CHANNELS 3 Xrotation Yrotation Zrotation
						JOINT newVegas:RightForeArm
						{
							OFFSET -29.593842 0.000000 -4.673203
							CHANNELS 3 Xrotation Yrotation Zrotation
							JOINT newVegas:RightHand
							{
								OFFSET -27.832886 0.000000 0.954267
								CHANNELS 3 Xrotation Yrotation Zrotation
								JOINT newVegas:RightHandThumb1
								{
									OFFSET -4.767456 -2.676666 6.397403
									CHANNELS 3 Xrotation Yrotation Zrotation
									JOINT newVegas:RightHandThumb2
									{
										OFFSET -6.625809 -0.223526 2.471421
										CHANNELS 3 Xrotation Yrotation Zrotation
										JOINT newVegas:RightHandThumb3
										{
											OFFSET -6.481201 0.059357 1.536795
											CHANNELS 3 Xrotation Yrotation Zrotation
											End Site
											{
												OFFSET 0.000000 6.661179 0.000000
											}
										}
									}
								}
								JOINT newVegas:RightHandIndex1
								{
									OFFSET -18.761932 0.178406 4.531118
									CHANNELS 3 Xrotation Yrotation Zrotation
									JOINT newVegas:RightHandIndex2
									{
										OFFSET -3.171219 -0.350479 0.097670
										CHANNELS 3 Xrotation Yrotation Zrotation
										JOINT newVegas:RightHandIndex3
										{
											OFFSET -3.807625 -0.034592 0.457391
											CHANNELS 3 Xrotation Yrotation Zrotation
											End Site
											{
												OFFSET 0.000000 3.835159 0.000000
											}
										}
									}
								}
								JOINT newVegas:RightHandMiddle1
								{
									OFFSET -18.461426 0.243439 -0.695648
									CHANNELS 3 Xrotation Yrotation Zrotation
									JOINT newVegas:RightHandMiddle2
									{
										OFFSET -3.308960 -0.304459 -0.112251
										CHANNELS 3 Xrotation Yrotation Zrotation
										JOINT newVegas:RightHandMiddle3
										{
											OFFSET -4.584320 0.057678 -0.330443
											CHANNELS 3 Xrotation Yrotation Zrotation
											End Site
											{
												OFFSET 0.000000 4.596573 0.000000
											}
										}
									}
								}
								JOINT newVegas:RightHandRing1
								{
									OFFSET -17.563904 -0.015564 -4.860666
									CHANNELS 3 Xrotation Yrotation Zrotation
									JOINT newVegas:RightHandRing2
									{
										OFFSET -2.582436 -0.710159 -0.544992
										CHANNELS 3 Xrotation Yrotation Zrotation
										JOINT newVegas:RightHandRing3
										{
											OFFSET -3.050346 0.119141 -0.884830
											CHANNELS 3 Xrotation Yrotation Zrotation
											End Site
											{
												OFFSET 0.000000 3.178329 0.000000
											}
										}
									}
								}
								JOINT newVegas:RightHandPinky1
								{
									OFFSET -15.713013 -1.058273 -8.049929
									CHANNELS 3 Xrotation Yrotation Zrotation
									JOINT newVegas:RightHandPinky2
									{
										OFFSET -2.262558 -0.308899 -1.109791
										CHANNELS 3 Xrotation Yrotation Zrotation
										JOINT newVegas:RightHandPinky3
										{
											OFFSET -2.240669 -0.150864 -1.296448
											CHANNELS 3 Xrotation Yrotation Zrotation
											End Site
											{
												OFFSET 0.000000 2.593094 0.000000
											}
										}
									}
								}
							}
							JOINT newVegas:Right_CapeC
							{
								OFFSET -15.944374 -8.608810 -6.393338
								CHANNELS 3 Xrotation Yrotation Zrotation
								JOINT newVegas:Right_CapeC1
								{
									OFFSET 0.000000 -8.688515 0.000000
									CHANNELS 3 Xrotation Yrotation Zrotation
									End Site
									{
										OFFSET 0.000000 8.688515 0.000000
									}
								}
							}
							JOINT newVegas:Right_Sleeve
							{
								OFFSET -0.247482 -0.649963 0.586505
								CHANNELS 3 Xrotation Yrotation Zrotation
								End Site
								{
									OFFSET 0.000000 15.991287 0.000000
								}
							}
						}
						JOINT newVegas:Right_CapeA
						{
							OFFSET -3.431450 -8.608810 -11.066542
							CHANNELS 3 Xrotation Yrotation Zrotation
							JOINT newVegas:Right_CapeA1
							{
								OFFSET 0.000000 -8.688515 0.000000
								CHANNELS 3 Xrotation Yrotation Zrotation
								End Site
								{
									OFFSET 0.000000 8.688515 0.000000
								}
							}
						}
						JOINT newVegas:Right_CapeB
						{
							OFFSET -24.694321 -8.608810 -11.066542
							CHANNELS 3 Xrotation Yrotation Zrotation
							JOINT newVegas:Right_CapeB1
							{
								OFFSET -0.000015 -8.688515 0.000002
								CHANNELS 3 Xrotation Yrotation Zrotation
								End Site
								{
									OFFSET 0.000000 8.688515 0.000000
								}
							}
						}
					}
				}
				JOINT newVegas:Left_Collar
				{
					OFFSET 18.625118 8.655487 8.828113
					CHANNELS 3 Xrotation Yrotation Zrotation
					JOINT newVegas:Left_Collar1
					{
						OFFSET 14.783401 10.540359 -1.259481
						CHANNELS 3 Xrotation Yrotation Zrotation
						End Site
						{
							OFFSET 0.000000 18.199844 0.000000
						}
					}
				}
				JOINT newVegas:Collar_Back
				{
					OFFSET 0.000000 15.630692 -20.132616
					CHANNELS 3 Xrotation Yrotation Zrotation
					End Site
					{
						OFFSET 0.000000 22.523010 0.000000
					}
				}
				JOINT newVegas:Left_Peck
				{
					OFFSET 17.239555 -5.132629 25.482586
					CHANNELS 3 Xrotation Yrotation Zrotation
					End Site
					{
						OFFSET 0.000000 22.523026 0.000000
					}
				}
				JOINT newVegas:Right_Peck
				{
					OFFSET -17.239599 -5.132195 25.482594
					CHANNELS 3 Xrotation Yrotation Zrotation
					End Site
					{
						OFFSET 0.000000 22.523018 0.000000
					}
				}
				JOINT newVegas:Right_Collar
				{
					OFFSET -18.625099 8.655807 8.828094
					CHANNELS 3 Xrotation Yrotation Zrotation
					JOINT newVegas:Right_Collar1
					{
						OFFSET -14.783405 10.539993 -1.259501
						CHANNELS 3 Xrotation Yrotation Zrotation
						End Site
						{
							OFFSET 0.000000 18.199646 0.000000
						}
					}
				}
			}
		}
		JOINT newVegas:Belly
		{
			OFFSET 0.000000 -6.540390 9.014252
			CHANNELS 3 Xrotation Yrotation Zrotation
			End Site
			{
				OFFSET 0.000000 11.566666 0.000000
			}
		}
	}
	JOINT newVegas:ElvisFacialAnim_Joint
	{
		OFFSET 1.000000 -95.330055 -8.825774
		CHANNELS 3 Xrotation Yrotation Zrotation
		End Site
		{
			OFFSET 0.000000 35.315800 0.000000
		}
	}
}
MOTION
Frames: 4
Frame Time: 0.016667
-0.259793 102.136688 -2.961943 89.450145 1.023940 4.930249 -0.000000 -0.000000 0.000000 -22.446867 -0.705932 8.570435 26.604830 0.152713 -1.500177 20.895430 0.524988 -16.233198 -0.000001 -0.000000 0.000001 -0.000000 -0.000000 -0.000001 -30.446753 -52.606906 -31.503107 8.863459 -0.596357 0.423880 21.673597 39.738027 19.369088 -0.000000 -0.000000 0.000004 0.000000 0.000001 0.000000 -1.156607 0.655479 -1.279095 -2.316034 1.317258 -1.535884 -2.316039 1.317258 -1.535886 -1.958547 0.311650 -0.091371 -1.958530 0.311648 -0.091369 -0.000000 0.000000 0.000000 -1.958538 0.311650 -0.091369 -1.958456 0.311649 -0.091371 -0.000000 0.000000 0.000000 -0.000000 0.000000 0.000000 0.301150 -2.573215 -7.759589 1.689052 10.710331 -22.601943 -14.103528 -124.769634 -4.102211 50.522800 8.341923 46.543525 -40.637133 -15.844593 -53.211886 2.289063 -1.597428 3.022597 -0.000002 -0.000001 0.000001 1.297758 3.725720 -49.472197 -3.581708 3.524368 -49.079219 0.000001 -0.000002 0.000000 -4.111231 2.508195 -52.552022 -9.075073 -2.188796 -45.987711 -0.000000 -0.000000 -0.000001 -10.061363 0.726454 -35.819418 -19.401835 5.906382 -76.789057 -0.000001 0.000000 0.000000 -24.073251 -9.056511 -59.901831 -19.939110 -5.885028 -38.623729 -0.000001 0.000002 0.000001 0.000001 0.000000 0.000002 0.000001 0.000000 0.000002 0.000001 0.000000 0.000002 -0.000000 0.000000 -0.000001 -0.000000 0.000000 -0.000001 -0.000000 0.000000 -0.000001 -0.000000 0.000000 -0.000001 0.363580 1.823639 6.234473 -13.486771 -23.330056 16.545838 -0.033881 128.758847 -0.041479 50.951268 -8.368809 -34.551916 -6.263897 9.894943 0.557295 0.477238 -6.090571 4.064462 -0.000001 -0.000001 0.000000 -9.559674 -2.694516 19.073792 -3.977781 0.557931 55.637953 -0.000000 -0.000000 -0.000000 -3.835135 -1.865123 8.983280 -12.028604 1.076181 65.789161 0.000001 -0.000001 -0.000000 -3.417950 1.910335 -4.677875 -24.223549 -3.011733 92.449452 -0.000000 -0.000001 0.000001 -5.177934 18.932818 15.880665 -28.789640 4.396241 54.121589 -0.000000 0.000000 -0.000000 -0.000001 -0.000001 0.000001 -0.000001 -0.000001 0.000001 -0.000001 -0.000001 -0.000000 0.000000 -0.000001 0.000002 0.000000 -0.000001 0.000002 0.000000 -0.000001 0.000002 0.000000 -0.000001 0.000002 -0.000000 -0.000000 0.000000 0.000000 -0.000000 0.000000 -0.000000 -0.000000 0.000000 -0.000000 -0.000000 0.000000 -0.000000 -0.000000 0.000000 -0.000000 -0.000000 0.000000 0.000000 -0.000000 0.000000 0.000000 -0.000000 0.000000 -0.000000 -0.000000 0.000000 
-0.247276 102.145103 -2.989497 89.441450 1.016380 4.929018 0.000000 -0.000000 -0.000000 -22.354074 -0.669148 8.622667 26.404769 0.125290 -1.488612 20.995810 0.459311 -16.503479 0.000002 0.000000 0.000000 0.000000 0.000000 0.000000 -30.371993 -52.426080 -31.426961 8.961618 -0.590534 0.426782 21.456032 39.625155 19.563011 0.000000 0.000000 0.000002 -0.000000 0.000004 0.000000 -1.153732 0.663415 -1.264063 -2.310152 1.333088 -1.525447 -2.310151 1.333087 -1.525446 -1.980721 0.312488 -0.085495 -1.980701 0.312488 -0.085495 -0.000000 0.000000 0.000000 -1.980661 0.312492 -0.085494 -1.980706 0.312485 -0.085495 -0.000001 0.000000 0.000000 -0.000000 0.000000 0.000000 0.299682 -2.565764 -7.772989 1.652793 10.637336 -22.622862 -14.093924 -124.692657 -4.101187 50.522223 8.312692 46.550946 -40.678090 -15.882095 -53.248117 2.287240 -1.568776 3.007325 0.000003 0.000001 -0.000001 1.309227 3.746716 -49.396102 -3.576973 3.537073 -48.951010 0.000002 -0.000001 -0.000002 -4.090068 2.519209 -52.535974 -9.060480 -2.187920 -45.896706 -0.000001 -0.000001 -0.000001 -10.131460 0.730075 -35.686205 -19.396766 5.896749 -76.736117 0.000000 -0.000000 -0.000001 -24.145323 -9.060443 -59.941364 -19.919863 -5.892979 -38.579340 0.000001 -0.000000 0.000001 0.000001 0.000001 0.000001 0.000001 0.000001 0.000001 0.000001 0.000001 0.000001 0.000001 -0.000002 -0.000000 0.000001 -0.000002 -0.000000 0.000001 -0.000002 -0.000000 0.000001 -0.000002 -0.000000 0.364481 1.899046 6.253028 -13.669262 -23.464446 16.677573 -0.034042 128.866122 -0.041097 51.075963 -8.303025 -34.401228 -6.378321 10.132286 0.614827 0.476201 -6.050337 4.049324 -0.000001 0.000000 -0.000001 -9.766027 -2.265501 20.429681 -3.924762 0.706275 56.613713 -0.000002 -0.000000 -0.000000 -4.177114 -1.386700 11.712834 -12.398807 1.063182 68.030385 0.000001 0.000000 0.000001 -3.910326 2.071723 -2.794257 -24.228411 -3.019497 92.481137 0.000000 0.000001 -0.000000 -5.284640 18.732098 16.318679 -28.487720 4.572770 53.533848 0.000001 -0.000000 -0.000001 -0.000001 -0.000001 -0.000000 -0.000001 -0.000001 -0.000000 -0.000001 -0.000001 0.000000 -0.000001 -0.000001 0.000003 -0.000001 -0.000001 0.000003 -0.000001 -0.000001 0.000003 -0.000001 -0.000001 0.000003 -0.000000 -0.000000 -0.000000 -0.000000 -0.000000 -0.000000 -0.000000 -0.000000 -0.000000 -0.000000 -0.000000 -0.000000 -0.000000 -0.000000 -0.000000 -0.000000 -0.000000 -0.000000 -0.000000 -0.000000 -0.000000 -0.000000 0.000000 -0.000000 0.000000 0.000000 -0.000000 
-0.237247 102.157112 -3.012938 89.427230 1.017779 4.931712 -0.000000 -0.000000 -0.000000 -22.271427 -0.647325 8.662025 26.223837 0.100942 -1.478091 21.085426 0.393282 -16.740683 0.000001 -0.000001 0.000001 0.000000 -0.000000 -0.000001 -30.273823 -52.236402 -31.336843 9.047940 -0.584728 0.429224 21.231315 39.492048 19.765847 0.000001 0.000000 -0.000003 0.000000 0.000000 -0.000000 -1.149633 0.669219 -1.250854 -2.301898 1.344655 -1.517199 -2.301875 1.344653 -1.517198 -2.003918 0.313690 -0.080208 -2.003932 0.313690 -0.080210 0.000000 -0.000000 -0.000000 -2.003903 0.313688 -0.080208 -2.003885 0.313690 -0.080207 -0.000000 0.000000 0.000000 0.000000 -0.000000 -0.000000 0.300356 -2.517161 -7.770266 1.594382 10.487399 -22.735813 -14.138406 -124.586994 -4.126618 50.568508 8.197293 46.528625 -40.707309 -15.906005 -53.275636 2.285637 -1.543264 2.993731 0.000001 0.000000 0.000002 1.318433 3.764681 -49.329539 -3.572698 3.548816 -48.832844 0.000001 -0.000000 0.000000 -4.062536 2.532711 -52.511683 -9.045825 -2.187015 -45.805376 0.000001 -0.000000 -0.000002 -10.212383 0.733261 -35.547713 -19.391693 5.887129 -76.683210 -0.000000 -0.000000 -0.000002 -24.213654 -9.057072 -59.999722 -19.901682 -5.900472 -38.537461 -0.000001 0.000000 -0.000000 -0.000003 0.000001 -0.000000 -0.000003 0.000001 -0.000000 -0.000003 0.000001 -0.000000 0.000000 0.000000 -0.000000 0.000000 0.000000 -0.000000 0.000000 0.000000 -0.000000 0.000000 0.000000 -0.000000 0.364659 1.983891 6.282213 -13.888495 -23.611660 16.839213 -0.034358 128.971703 -0.040521 51.224646 -8.205213 -34.233912 -6.500502 10.382473 0.678060 0.475013 -6.003312 4.031532 0.000000 0.000000 -0.000001 -9.997927 -1.799162 21.883110 -3.866617 0.862953 57.624598 0.000001 0.000000 -0.000001 -4.560762 -0.886921 14.601987 -12.793300 1.033555 70.423628 0.000001 -0.000000 -0.000000 -4.440654 2.231394 -0.809384 -24.232840 -3.026587 92.509926 0.000001 0.000001 0.000003 -5.381950 18.531794 16.740775 -28.169307 4.753685 52.919773 -0.000002 -0.000001 -0.000000 0.000001 0.000001 -0.000004 0.000001 0.000001 -0.000004 0.000001 0.000001 -0.000003 -0.000002 -0.000000 -0.000001 -0.000002 -0.000000 -0.000001 -0.000002 -0.000000 -0.000001 -0.000002 -0.000000 -0.000001 -0.000000 0.000000 -0.000000 -0.000000 0.000000 0.000000 -0.000000 0.000000 -0.000000 -0.000000 0.000000 -0.000000 -0.000000 0.000000 -0.000000 -0.000000 0.000000 -0.000000 -0.000000 0.000000 0.000000 -0.000000 -0.000000 -0.000001 0.000000 -0.000000 -0.000000 
-0.234210 102.178894 -3.025308 89.397430 1.040033 4.944117 0.000000 -0.000000 -0.000000 -22.217092 -0.659226 8.669997 26.097437 0.083665 -1.470553 21.151720 0.338663 -16.890013 0.000001 0.000002 -0.000001 0.000000 0.000000 0.000000 -30.113754 -52.027907 -31.209617 9.100551 -0.579006 0.430540 20.991833 39.316167 19.989261 -0.000000 -0.000001 -0.000000 0.000001 0.000001 0.000000 -1.141017 0.670915 -1.242422 -2.284591 1.347991 -1.513990 -2.284569 1.347989 -1.513991 -2.030501 0.315772 -0.075381 -2.030494 0.315774 -0.075379 0.000000 0.000000 -0.000000 -2.030520 0.315776 -0.075381 -2.030419 0.315767 -0.075379 0.000001 0.000000 -0.000000 0.000000 0.000000 -0.000000 0.300464 -2.491775 -7.774149 1.533945 10.352639 -22.808682 -14.153328 -124.463942 -4.136078 50.602228 8.117967 46.553938 -40.708891 -15.906998 -53.276746 2.284153 -1.519684 2.981166 0.000000 -0.000001 0.000002 1.321645 3.772915 -49.300370 -3.569466 3.558395 -48.737334 0.000000 0.000000 0.000001 -4.015490 2.552571 -52.477938 -9.030099 -2.186029 -45.707312 0.000000 -0.000000 0.000000 -10.319056 0.735724 -35.402698 -19.386237 5.876801 -76.626356 0.000000 0.000000 -0.000001 -24.275978 -9.034308 -60.111320 -19.888742 -5.905774 -38.507719 0.000000 0.000000 0.000003 0.000002 0.000000 0.000000 0.000002 0.000000 0.000000 0.000002 0.000000 0.000000 0.000000 -0.000001 -0.000002 0.000000 -0.000001 -0.000002 0.000000 -0.000001 -0.000002 0.000000 -0.000001 -0.000002 0.363550 2.096200 6.336742 -14.196629 -23.806298 17.068105 -0.034733 129.083253 -0.039758 51.434296 -8.037840 -34.042489 -6.650129 10.682770 0.757836 0.473141 -5.929528 4.003278 0.000001 -0.000001 -0.000001 -10.290322 -1.266002 23.476719 -3.788862 1.017570 58.537426 -0.000001 0.000000 -0.000000 -5.018389 -0.347147 17.647739 -13.206839 0.985125 72.941673 -0.000001 0.000001 0.000002 -5.028845 2.398758 1.251412 -24.233204 -3.027186 92.512399 0.000000 0.000000 -0.000002 -5.477244 18.357578 17.141374 -27.823510 4.945495 52.252494 -0.000001 -0.000002 -0.000001 -0.000001 -0.000000 0.000002 -0.000001 -0.000000 0.000002 -0.000001 -0.000000 0.000001 0.000001 0.000001 -0.000001 0.000001 0.000001 -0.000001 0.000001 0.000001 -0.000001 0.000001 0.000001 0.000001 -0.000000 -0.000000 -0.000000 -0.000000 -0.000000 -0.000000 -0.000000 -0.000000 -0.000000 -0.000000 -0.000000 -0.000000 -0.000000 -0.000000 -0.000000 -0.000000 -0.000000 -0.000000 -0.000000 -0.000000 -0.000000 -0.000000 -0.000000 0.000000 0.000000 -0.000000 -0.000000 
